<svg xmlns="http://www.w3.org/2000/svg" viewBox="0 0 64 64">
  <defs>
    <linearGradient id="g" x1="0%" y1="0%" x2="100%" y2="100%">
      <stop offset="0%" stop-color="#3b82f6"/>
      <stop offset="100%" stop-color="#06b6d4"/>
    </linearGradient>
  </defs>
  <!-- Background -->
  <rect width="64" height="64" rx="14" fill="#0a0c12"/>
  <!-- Top-left finder square -->
  <rect x="10" y="10" width="18" height="18" rx="3" fill="url(#g)"/>
  <rect x="14" y="14" width="10" height="10" rx="2" fill="#0a0c12"/>
  <rect x="16" y="16" width="6" height="6" rx="1" fill="url(#g)"/>
  <!-- Top-right finder square -->
  <rect x="36" y="10" width="18" height="18" rx="3" fill="url(#g)"/>
  <rect x="40" y="14" width="10" height="10" rx="2" fill="#0a0c12"/>
  <rect x="42" y="16" width="6" height="6" rx="1" fill="url(#g)"/>
  <!-- Bottom-left finder square -->
  <rect x="10" y="36" width="18" height="18" rx="3" fill="url(#g)"/>
  <rect x="14" y="40" width="10" height="10" rx="2" fill="#0a0c12"/>
  <rect x="16" y="42" width="6" height="6" rx="1" fill="url(#g)"/>
  <!-- Data dots (bottom-right area) -->
  <rect x="36" y="36" width="5" height="5" rx="1.5" fill="url(#g)"/>
  <rect x="43" y="36" width="5" height="5" rx="1.5" fill="url(#g)"/>
  <rect x="50" y="36" width="5" height="5" rx="1.5" fill="url(#g)"/>
  <rect x="36" y="43" width="5" height="5" rx="1.5" fill="url(#g)"/>
  <rect x="50" y="43" width="5" height="5" rx="1.5" fill="url(#g)"/>
  <rect x="43" y="50" width="5" height="5" rx="1.5" fill="url(#g)"/>
  <rect x="50" y="50" width="5" height="5" rx="1.5" fill="url(#g)"/>
</svg>
